# xmcd
#
# Track frame offsets:
#	183
#	10543
#	30540
#	41735
#	55568
#	65753
#	77670
#	94228
#	114058
#	128555
#	140975
#	167665
#	187455
#
# Disc length: 2730 seconds
#
# Revision: 0
# Processed by: cddbd v1.5.1PL2 Copyright (c) Steve Scherf et al.
# Submitted via: dBpowerAMP V4.0
#
DISCID=ab0aa80d
DTITLE=Camillio Seremilo - Paraguay
DYEAR=1900
DGENRE=Country
TTITLE0=Gloria
TTITLE1=Yo Quedare
TTITLE2=Felicidades
TTITLE3=Te Quiero Te Queiero
TTITLE4=Capesinata De Mi Tierra
TTITLE5=A Mi Tierra
TTITLE6=Cascada
TTITLE7=Adios Aun Travador
TTITLE8=Piel Canela
TTITLE9=Hasta La Vista
TTITLE10=Maria Dolores
TTITLE11=Mboracjhu Asy
TTITLE12=Viva Mexsico Medley
EXTD=Paraguay
EXTT0=
EXTT1=
EXTT2=
EXTT3=
EXTT4=
EXTT5=
EXTT6=
EXTT7=
EXTT8=
EXTT9=
EXTT10=
EXTT11=
EXTT12=
PLAYORDER=
